<?xml version="1.0" encoding="UTF-8" standalone="no"?>
<!DOCTYPE svg PUBLIC "-//W3C//DTD SVG 1.1//EN" "http://www.w3.org/Graphics/SVG/1.1/DTD/svg11.dtd">
<svg width="100%" height="100%" viewBox="0 0 3731 1017" version="1.1" xmlns="http://www.w3.org/2000/svg" xmlns:xlink="http://www.w3.org/1999/xlink" xml:space="preserve" xmlns:serif="http://www.serif.com/" style="fill-rule:evenodd;clip-rule:evenodd;stroke-linejoin:round;stroke-miterlimit:2;">
    <g transform="matrix(1,0,0,1,-3,-3)">
        <g transform="matrix(9.201711,0,0,9.201711,1233.283418,493.175104)">
            <path d="M0,8.065L0,-23.054L-9.408,-21.09L-7.754,-32.153L13.337,-32.153L13.337,8.065C13.337,24.502 10.546,33.084 6.617,40.218L-7.652,40.218C-2.172,29.88 0,22.642 0,8.065" style="fill:rgb(35,61,77);fill-rule:nonzero;"/>
        </g>
        <g transform="matrix(9.201711,0,0,9.201711,1597.628827,360.933641)">
            <path d="M0,36.807L-4.342,-3.617L-8.685,36.807L0,36.807ZM2.378,54.589L1.447,47.249L-9.718,45.181L-10.649,54.589L-22.125,54.589L-10.236,-17.782L5.376,-17.782L16.231,54.589L2.378,54.589Z" style="fill:rgb(35,61,77);fill-rule:nonzero;"/>
        </g>
        <g transform="matrix(9.201711,0,0,9.201711,1860.149947,778.583638)">
            <path d="M0,-53.969L-1.964,-63.17L11.993,-63.17L19.334,-16.335L24.089,-53.969L22.332,-63.17L36.289,-63.17L47.558,9.201L33.497,9.201L28.122,-29.259L22.022,9.201L11.269,9.201L4.239,-29.259L0.517,9.201L-10.234,9.201L0,-53.969Z" style="fill:rgb(35,61,77);fill-rule:nonzero;"/>
        </g>
        <g transform="matrix(9.201711,0,0,9.201711,2695.250264,534.083148)">
            <path d="M0,-0.827L-11.683,-3.515L-11.683,35.772L-24.916,35.772L-24.916,-36.599L0.414,-36.599L2.586,-25.536L-11.683,-27.398L-11.683,-11.89L-2.171,-11.89L0,-0.827Z" style="fill:rgb(35,61,77);fill-rule:nonzero;"/>
        </g>
        <g transform="matrix(-9.201711,0,0,9.201711,6983.252884,-2437.044277)">
            <rect x="443.673" y="286.29" width="13.543" height="72.371" style="fill:rgb(35,61,77);"/>
        </g>
        <g transform="matrix(9.201711,0,0,9.201711,3310.711273,197.310665)">
            <path d="M0,72.371L-10.753,72.371L-25.124,32.051L-21.815,72.371L-33.601,72.371L-33.601,9.201L-36.807,0L-23.262,0L-8.477,39.183L-11.786,0L0,0L0,72.371Z" style="fill:rgb(35,61,77);fill-rule:nonzero;"/>
        </g>
        <g transform="matrix(9.201711,0,0,9.201711,3587.515288,779.519452)">
            <path d="M0,-54.173L-5.997,-54.173L-5.997,3C2.171,-12.198 4.446,-37.942 0,-54.173M2.895,9.099L-19.127,9.099L-19.127,-54.071L-22.332,-63.272L11.889,-63.272C20.884,-31.325 13.13,-6.926 2.895,9.099" style="fill:rgb(35,61,77);fill-rule:nonzero;"/>
        </g>
        <g transform="matrix(9.201711,0,0,9.201711,450.994478,451.361611)">
            <path d="M0,13.057C-13.512,13.057 -24.465,2.104 -24.465,-11.408C-24.465,-24.92 -13.512,-35.873 0,-35.873C13.512,-35.873 24.465,-24.92 24.465,-11.408C24.465,2.104 13.512,13.057 0,13.057M48.647,-15.464C50.056,-48.629 8.72,-48.747 0,-48.725C-8.72,-48.747 -50.056,-48.629 -48.646,-15.464C-48.671,-15.013 -48.686,-14.559 -48.686,-14.098C-48.686,3.505 -29.637,33.758 -12.246,52.117C-6.114,58.591 -3.067,61.804 0,61.763C3.067,61.804 6.114,58.591 12.246,52.117C29.637,33.758 48.686,3.505 48.686,-14.098C48.686,-14.559 48.671,-15.013 48.647,-15.464" style="fill:rgb(35,61,77);fill-rule:nonzero;"/>
        </g>
        <g transform="matrix(-9.201711,0,0,9.201711,450.994478,488.693871)">
            <path d="M0,-30.93C8.541,-30.93 15.465,-24.006 15.465,-15.465C15.465,-6.924 8.541,0 0,0C-8.541,0 -15.465,-6.924 -15.465,-15.465C-15.465,-24.006 -8.541,-30.93 0,-30.93" style="fill:rgb(35,61,77);fill-rule:nonzero;"/>
        </g>
    </g>
</svg>
