<svg xmlns="http://www.w3.org/2000/svg" xmlns:xlink="http://www.w3.org/1999/xlink" width="500" zoomAndPan="magnify" viewBox="0 0 375 374.999991" height="500" preserveAspectRatio="xMidYMid meet" version="1.0"><defs><clipPath id="57faaaa262"><path d="M 88.863281 285.511719 L 343.515625 285.511719 L 343.515625 345.527344 L 88.863281 345.527344 Z M 88.863281 285.511719 " clip-rule="nonzero"/></clipPath><clipPath id="901fcf213c"><path d="M 283.503906 89.148438 L 343.515625 89.148438 L 343.515625 343.804688 L 283.503906 343.804688 Z M 283.503906 89.148438 " clip-rule="nonzero"/></clipPath><clipPath id="5b67c69d4a"><path d="M 156.175781 221.246094 L 216.191406 221.246094 L 216.191406 343.800781 L 156.175781 343.800781 Z M 156.175781 221.246094 " clip-rule="nonzero"/></clipPath><clipPath id="3d4ffa38a7"><path d="M 30.730469 29.472656 L 285.382812 29.472656 L 285.382812 89.484375 L 30.730469 89.484375 Z M 30.730469 29.472656 " clip-rule="nonzero"/></clipPath><clipPath id="638bfed937"><path d="M 31.476562 31.195312 L 91.492188 31.195312 L 91.492188 285.847656 L 31.476562 285.847656 Z M 31.476562 31.195312 " clip-rule="nonzero"/></clipPath><clipPath id="52d17565bf"><path d="M 156.96875 31.195312 L 216.984375 31.195312 L 216.984375 153.753906 L 156.96875 153.753906 Z M 156.96875 31.195312 " clip-rule="nonzero"/></clipPath></defs><g clip-path="url(#57faaaa262)"><path fill="#0054a6" d="M 343.515625 345.527344 L 88.863281 345.527344 L 88.863281 285.511719 L 343.515625 285.511719 Z M 343.515625 345.527344 " fill-opacity="1" fill-rule="nonzero"/></g><g clip-path="url(#901fcf213c)"><path fill="#0054a6" d="M 343.515625 89.148438 L 343.515625 343.804688 L 283.503906 343.804688 L 283.503906 89.148438 Z M 343.515625 89.148438 " fill-opacity="1" fill-rule="nonzero"/></g><g clip-path="url(#5b67c69d4a)"><path fill="#0054a6" d="M 216.191406 221.246094 L 216.191406 343.800781 L 156.175781 343.800781 L 156.175781 221.246094 Z M 216.191406 221.246094 " fill-opacity="1" fill-rule="nonzero"/></g><g clip-path="url(#3d4ffa38a7)"><path fill="#00bf63" d="M 30.730469 29.472656 L 285.382812 29.472656 L 285.382812 89.484375 L 30.730469 89.484375 Z M 30.730469 29.472656 " fill-opacity="1" fill-rule="nonzero"/></g><g clip-path="url(#638bfed937)"><path fill="#00bf63" d="M 31.476562 285.847656 L 31.476562 31.195312 L 91.492188 31.195312 L 91.492188 285.847656 Z M 31.476562 285.847656 " fill-opacity="1" fill-rule="nonzero"/></g><g clip-path="url(#52d17565bf)"><path fill="#00bf63" d="M 156.96875 153.753906 L 156.96875 31.195312 L 216.984375 31.195312 L 216.984375 153.753906 Z M 156.96875 153.753906 " fill-opacity="1" fill-rule="nonzero"/></g></svg>